# AST/ASF file generated using VICON BodyLanguage
# -----------------------------------------------
:version 1.10
:name VICON
:units
  mass 1.0
  length 0.45
  angle deg
:documentation
   .ast/.asf automatically generated from VICON data using
   VICON BodyBuilder and BodyLanguage model FoxedUp or BRILLIANT.MOD
:root
   order TX TY TZ RX RY RZ
   axis XYZ
   position 0 0 0  
   orientation 0 0 0 
:bonedata
  begin
     id 1 
     name lhipjoint
     direction 0.611804 -0.747784 0.257906 
     length 2.29243 
     axis 0 0 0  XYZ
  end
  begin
     id 2 
     name lfemur
     direction 0.34202 -0.939693 0  
     length 7.31159  
     axis 0 0 20  XYZ
    dof rx ry rz
    limits (-160.0 20.0)
           (-70.0 70.0)
           (-60.0 70.0)
  end
  begin
     id 3 
     name ltibia
     direction 0.34202 -0.939693 0   
     length 7.33391   
     axis 0 0 20   XYZ
    dof rx
    limits (-10.0 170.0)
  end
  begin
     id 4 
     name lfoot
     direction 0.122263 -0.335914 0.933924   
     length 1.76083   
     axis -90 7.62852e-016 20   XYZ
    dof rx rz
    limits (-45.0 90.0)
           (-70.0 20.0)
  end
  begin
     id 5 
     name ltoes
     direction 1.53533e-011 -4.2177e-011 1   
     length 0.879206   
     axis -90 7.62852e-016 20   XYZ
    dof rx
    limits (-90.0 20.0)
  end
  begin
     id 6 
     name rhipjoint
     direction -0.646469 -0.721248 0.248754   
     length 2.37677  
     axis 0 0 0  XYZ 
  end
  begin
     id 7 
     name rfemur
     direction -0.34202 -0.939693 0   
     length 7.18623   
     axis 0 0 -20   XYZ
    dof rx ry rz
    limits (-160.0 20.0)
           (-70.0 70.0)
           (-70.0 60.0)
  end
  begin
     id 8 
     name rtibia
     direction -0.34202 -0.939693 0   
     length 7.36567   
     axis 0 0 -20   XYZ
    dof rx
    limits (-10.0 170.0)
 end
 begin
     id 9 
     name rfoot
     direction -0.126681 -0.348054 0.928876   
     length 1.71902  
     axis -90 -7.62852e-016 -20   XYZ
    dof rx rz
    limits (-45.0 90.0)
           (-20.0 70.0)
  end
  begin
     id 10 
     name rtoes
     direction -1.53551e-011 -4.21898e-011 1   
     length 0.857792   
     axis -90 -7.62852e-016 -20   XYZ
    dof rx
    limits (-90.0 20.0)
  end
  begin
     id 11 
     name lowerback
     direction 0.0106509 0.999778 0.0181844   
     length 2.07668   
     axis 0 0 0   XYZ
    dof rx ry rz
    limits (-20.0 45.0)
           (-30.0 30.0)
           (-30.0 30.0)
  end
  begin
     id 12 
     name upperback
     direction -0.00456018 0.999989 -0.000590935   
     length 2.08011   
     axis 0 0 0   XYZ
    dof rx ry rz
    limits (-20.0 45.0)
           (-30.0 30.0)
           (-30.0 30.0)
  end
  begin
     id 13 
     name thorax
     direction -0.00910382 0.999916 -0.00923765   
     length 2.07397   
     axis 0 0 0   XYZ
    dof rx ry rz
    limits (-20.0 45.0)
           (-30.0 30.0)
           (-30.0 30.0)
  end
  begin
     id 14 
     name lowerneck
     direction 0.00171967 0.99778 0.0665733   
     length 1.67556   
     axis 0 0 0   XYZ
    dof rx ry rz
    limits (-20.0 45.0)
           (-30.0 30.0)
           (-30.0 30.0)
  end
  begin
     id 15 
     name upperneck
     direction -0.0143166 0.991302 -0.130828   
     length 1.68462   
     axis 0 0 0   XYZ
    dof rx ry rz
    limits (-20.0 45.0)
           (-30.0 30.0)
           (-30.0 30.0)
  end
  begin
     id 16
     name head
     direction -0.00606378 0.998665 -0.0512995  
     length 1.69269  
     axis 0 0 0   XYZ
    dof rx ry rz
    limits (-20.0 45.0)
           (-30.0 30.0)
           (-30.0 30.0)
  end
  begin
     id 17 
     name lclavicle
     direction 0.9638 0.179341 0.197297  
     length 4.12888  
     axis 0 0 0   XYZ
    dof ry rz
    limits (-20.0 10.0)
           (0.0 20.0)
  end
  begin
     id 18 
     name lhumerus
     direction 1 -4.48972e-011 -2.47351e-027   
     length 5.01834   
     axis -180 -30 -90   XYZ
    dof rx ry rz
    limits (-60.0 90.0)
           (-90.0 90.0)
           (-90.0 90.0)
  end
  begin
     id 19
     name lradius
     direction 1 -4.48965e-011 1.51591e-026   
     length 3.4869   
     axis -180 -30 -90   XYZ
    dof rx
    limits (-10.0 170.0)
  end
  begin
     id 20
     name lwrist
     direction 1 -4.48957e-011 2.70032e-026   
     length 1.74345   
     axis -1.81515e-014 90 90   XYZ
    dof ry
    limits (-180.0 0.0)
 end
  begin
     id 21 
     name lhand
     direction 1 -4.48951e-011 5.40064e-026   
     length 0.76799   
     axis -3.44607e-014 90 90   XYZ
    dof rx rz
    limits (-90.0 90.0)
           (-45.0 45.0)
  end
  begin
     id 22 
     name lfingers
     direction 1 -4.48971e-011 1.08013e-025   
     length 0.619174   
     axis -6.89214e-014 90 90   XYZ
    dof rx
    limits (0.0 90.0)
  end
  begin
     id 23
     name lthumb
     direction 0.707107 -6.34931e-011 0.707107   
     length 0.889013   
     axis -90 45 2.85299e-015   XYZ
    dof rx rz
    limits (-45.0 45.0)
           (-45.0 45.0)
  end
  begin
     id 24 
     name rclavicle
     direction -0.961409 0.252588 0.109054   
     length 4.04305  
     axis 0 0 0   XYZ 
    dof ry rz
    limits (-10.0 20.0)
           (-20.0 0.0)
  end
  begin
     id 25 
     name rhumerus
     direction -1 -4.4897e-011 1.33872e-017  
     length 4.70164   
     axis -180 30 90   XYZ
    dof rx ry rz
    limits (-90.0 60.0)
           (-90.0 90.0)
           (-90.0 90.0)
  end
  begin
     id 26 
     name rradius
     direction -1 -4.48954e-011 1.83844e-026   
     length 3.49911   
     axis -180 30 90   XYZ
    dof rx
    limits (-10.0 170.0)
  end
  begin
     id 27 
     name rwrist
     direction -1 -4.49008e-011 2.70032e-026   
     length 1.74955   
     axis -1.81515e-014 -90 -90   XYZ
    dof ry
    limits (-180.0 0.0)
  end
  begin
     id 28
     name rhand
     direction -1 -4.48916e-011 5.40064e-026   
     length 0.739335   
     axis -3.44607e-014 -90 -90   XYZ
    dof rx rz
    limits (-90.0 90.0)
           (-45.0 45.0)
  end
  begin
     id 29
     name rfingers
     direction -1 -4.48987e-011 1.08013e-025   
     length 0.596071   
     axis -6.89214e-014 -90 -90   XYZ
    dof rx
    limits (0.0 90.0)
  end
  begin
     id 30
     name rthumb
     direction -0.707107 -6.34935e-011 0.707107   
     length 0.855843   
     axis -90 -45 -2.85299e-015   XYZ
    dof rx rz
    limits (-45.0 45.0)
           (-45.0 45.0)
  end
:hierarchy
  begin
    root lhipjoint rhipjoint lowerback
    lhipjoint lfemur
    lfemur ltibia
    ltibia lfoot
    lfoot ltoes
    rhipjoint rfemur
    rfemur rtibia
    rtibia rfoot
    rfoot rtoes
    lowerback upperback
    upperback thorax
    thorax lowerneck lclavicle rclavicle
    lowerneck upperneck
    upperneck head
    lclavicle lhumerus
    lhumerus lradius
    lradius lwrist
    lwrist lhand lthumb
    lhand lfingers
    rclavicle rhumerus
    rhumerus rradius
    rradius rwrist
    rwrist rhand rthumb
    rhand rfingers
  end

#!OML:ASF I:\salsa\salsa 7_09\Patient 1\Session 1\dancermale.ASF
:FULLY-SPECIFIED
:DEGREES
771
root 9.67684 7.83041 -13.3429 186.893 184.222 170.285
lowerback 32.3348 3.8405 -2.57681
upperback 0.928279 4.31555 1.87055
thorax -16.1573 2.11443 1.60169
lowerneck -7.65236 -14.2814 -8.49097
upperneck -3.26442 -18.548 11.9981
head 2.151 -9.08521 3.85992
rclavicle 3.18055e-015 2.06736e-014
rhumerus 9.78563 -27.5425 -96.6412
rradius 72.9891
rwrist -27.2134
rhand -20.799 1.77204
rfingers 7.12502
rthumb 5.5684 -28.1348
lclavicle 3.18055e-015 2.06736e-014
lhumerus -31.9375 -55.0125 128.108
lradius 61.7276
lwrist 22.3746
lhand -20.3979 52.1534
lfingers 7.12502
lthumb 5.95569 802.05
rfemur -58.3466 -23.6987 -28.6522
rtibia 62.5331
rfoot -0.188569 -1.52398
rtoes -37.8072
lfemur -116.365 39.674 -33.4138
ltibia 25.0343
lfoot 159.964 -24.3462
ltoes -17.8037
772
root 9.66935 7.81129 -13.3397 186.911 184.254 170.343
lowerback 32.29 3.66832 -2.78299
upperback 0.906168 4.02379 1.89896
thorax -16.1627 2.00615 1.87252
lowerneck -7.891 -14.1355 -8.25732
upperneck -3.21737 -18.3528 11.8079
head 2.14317 -8.98431 3.77764
rclavicle -1.07344e-014 4.6118e-014
rhumerus 8.57495 -27.0107 -95.8228
rradius 73.7977
rwrist -26.5719
rhand -20.419 1.09964
rfingers 7.12502
rthumb 5.93528 -28.7972
lclavicle -1.07344e-014 4.6118e-014
lhumerus -31.7157 -54.8176 128.09
lradius 61.8446
lwrist 22.63
lhand -20.307 52.2025
lfingers 7.12502
lthumb 6.04347 802.096
rfemur -58.4663 -23.5818 -28.7948
rtibia 62.6671
rfoot -0.34281 -1.58068
rtoes -36.6967
lfemur -116.344 39.6806 -33.284
ltibia 24.9065
lfoot 159.96 -24.1908
ltoes -18.2557
773
root 9.66112 7.79337 -13.3372 186.803 184.246 170.48
lowerback 32.5422 3.51142 -3.04383
upperback 0.789326 3.72466 1.9316
thorax -16.4127 1.89947 2.16868
lowerneck -8.00451 -13.9814 -8.15228
upperneck -3.09561 -18.1504 11.6477
head 2.15294 -8.88027 3.72628
rclavicle 7.15625e-015 -1.74931e-014
rhumerus 7.45025 -26.4794 -95.0639
rradius 74.3572
rwrist -26.5258
rhand -20.1787 0.959385
rfingers 7.12502
rthumb 6.16725 -28.9308
lclavicle 7.15625e-015 -1.74931e-014
lhumerus -31.7067 -54.487 128.331
lradius 61.8803
lwrist 22.6293
lhand -20.2713 52.0489
lfingers 7.12502
lthumb 6.07791 801.942
rfemur -58.4986 -23.4963 -29.0024
rtibia 62.827
rfoot -0.42055 -1.49966
rtoes -36.7831
lfemur -116.205 39.6985 -33.1691
ltibia 24.7947
lfoot 159.941 -24.0282
ltoes -19.0831
774
root 9.65231 7.77493 -13.3339 186.696 184.268 170.573
lowerback 32.7104 3.30026 -3.07101
upperback 0.73502 3.41567 1.81404
thorax -16.5216 1.76443 2.18342
lowerneck -8.05336 -13.8267 -8.02851
upperneck -3.05053 -17.9582 11.7611
head 2.15839 -8.7818 3.75428
rclavicle 4.6118e-014 -1.51076e-014
rhumerus 6.80771 -26.2136 -94.9903
rradius 74.7001
rwrist -26.4092
rhand -19.725 0.775157
rfingers 7.12502
rthumb 6.60527 -29.1018
lclavicle 4.6118e-014 -1.51076e-014
lhumerus -31.6884 -54.3227 128.451
lradius 61.771
lwrist 22.4436
lhand -20.3183 51.7724
lfingers 7.12502
lthumb 6.03256 801.667
rfemur -58.5914 -23.4232 -29.1009
rtibia 63.0643
rfoot -0.556193 -1.40296
rtoes -38.0045
lfemur -116.146 39.8046 -33.0872
ltibia 24.6632
lfoot 159.892 -23.8451
ltoes -19.9978
775
root 9.64212 7.75738 -13.3304 186.607 184.329 170.611
lowerback 32.9606 3.15919 -3.20294
upperback 0.603031 3.18292 1.84599
thorax -16.7837 1.67905 2.38388
lowerneck -8.08504 -13.6848 -8.01891
upperneck -2.96575 -17.7718 11.7457
head 2.16975 -8.68612 3.7607
rclavicle -2.78299e-015 -1.59028e-014
rhumerus 5.91282 -25.8855 -94.605
rradius 75.0605
rwrist -26.7386
rhand -19.6712 0.591619
rfingers 7.12502
rthumb 6.65721 -29.2837
lclavicle -2.78299e-015 -1.59028e-014
lhumerus -31.7052 -54.0067 128.85
lradius 61.5504
lwrist 22.3218
lhand -20.5309 51.4364
lfingers 7.12502
lthumb 5.82724 801.336
rfemur -58.7623 -23.3555 -29.1083
rtibia 63.3535
rfoot -0.7263 -1.28507
rtoes -39.0802
lfemur -116.145 40.0022 -33.0051
ltibia 24.5291
lfoot 159.854 -23.6506
ltoes -20.5894
776
root 9.63155 7.7423 -13.3274 186.528 184.366 170.625
lowerback 33.3036 2.85613 -3.06253
upperback 0.398245 2.81098 1.70971
thorax -17.1392 1.50789 2.31167
lowerneck -8.01789 -13.4988 -7.97607
upperneck -2.81334 -17.5439 11.8029
head 2.18708 -8.57075 3.79053
rclavicle 5.1684e-015 1.59028e-014
rhumerus 4.81222 -25.0377 -94.4098
rradius 75.4021
rwrist -29.3547
rhand -22.4083 2.37557
rfingers 7.12502
rthumb 4.01452 -27.5664
lclavicle 5.1684e-015 1.59028e-014
lhumerus -31.7708 -53.8983 128.933
lradius 61.4424
lwrist 22.6802
lhand -21.2196 51.2586
lfingers 7.12502
lthumb 5.1623 801.176
rfemur -58.9129 -23.3027 -29.1099
rtibia 63.624
rfoot -0.850813 -1.21698
rtoes -39.3547
lfemur -116.146 40.1769 -32.9152
ltibia 24.4181
lfoot 159.906 -23.5172
ltoes -21.0089
777
root 9.62121 7.72938 -13.3249 186.468 184.369 170.662
lowerback 33.6465 2.63888 -3.14249
upperback 0.198392 2.50122 1.76865
thorax -17.5192 1.39168 2.55138
lowerneck -8.13249 -13.3042 -8.12958
upperneck -2.4698 -17.2827 11.7034
head 2.28702 -8.42905 3.78673
rclavicle 1.19271e-015 -1.59028e-014
rhumerus 4.13582 -25.1202 -94.227
rradius 75.5646
rwrist -28.2198
rhand -21.1433 0.962718
rfingers 7.12502
rthumb 5.236 -28.9526
lclavicle 1.19271e-015 -1.59028e-014
lhumerus -31.3314 -53.5436 128.844
lradius 61.2895
lwrist 22.1349
lhand -20.0228 51.0847
lfingers 7.12502
lthumb 6.31784 800.971
rfemur -58.9844 -23.3006 -29.1516
rtibia 63.795
rfoot -0.918124 -1.14973
rtoes -39.519
lfemur -116.132 40.2939 -32.8406
ltibia 24.3309
lfoot 159.874 -23.3851
ltoes -21.1938
